<?xml version="1.0" encoding="utf-8"?>
<!-- Generator: Adobe Illustrator 24.0.1, SVG Export Plug-In . SVG Version: 6.00 Build 0)  -->
<svg version="1.1" id="Layer_1" xmlns="http://www.w3.org/2000/svg" xmlns:xlink="http://www.w3.org/1999/xlink" x="0px" y="0px"
	 viewBox="0 0 500 500" style="enable-background:new 0 0 500 500;" xml:space="preserve">
<style type="text/css">
	.st0{fill:#F0F0F0;}
	.st1{fill:#E0E0E0;}
	.st2{fill:#E6E6E6;}
	.st3{fill:#FFFFFF;}
	.st4{fill:#EBEBEB;}
	.st5{fill:#263238;}
	.st6{fill:#111742;}
	.st7{opacity:0.2;fill:#FFFFFF;enable-background:new    ;}
	.st8{fill:#E5BAAB;}
	.st9{fill:#EFEDE9;}
	.st10{fill:#D78776;}
	.st11{opacity:0.2;enable-background:new    ;}
	.st12{fill:#FFFFFF;}
</style>
<g id="freepik--background-complete--inject-58">
	<path class="st0" d="M369.2,401.5c-18.7-12.3-23.5-35.7-23.3-56.9c0-3.5-0.5-7.3,1.2-10.4s5.6-5.4,8.8-3.9c2.7,1.2,3.9,4.2,5.5,6.7
		c2.1,3.3,5.1,6,8.6,7.7c2.3,1.1,5.1,1.8,7.4,0.5c3-1.8,3.3-6,3.2-9.5c-0.2-6.5-0.4-13.1-0.6-19.7c-0.1-3.5-0.2-7.1,0.8-10.5
		s3.4-6.5,6.8-7.5s7.6,0.8,8.4,4.2c0.2,1.5,0.2,2.9,0.2,4.4c0.1,1.5,0.9,3.1,2.3,3.4s2.8-0.6,3.9-1.7c3.6-3.6,6-8.3,8.2-12.9
		s4.4-9.3,7.6-13.3s7.8-7.1,12.9-7.5s10.6,2.6,12,7.5s-1.4,10-4.5,14.1c-4.6,6.1-10,11.5-16.2,16c-1.2,0.7-2.1,1.7-2.7,3
		c-0.7,2.4,1.6,4.6,4,5.4c2.7,0.8,5.5,0.5,8.3,0.7s5.8,1.4,6.9,4c1.5,3.6-1.4,7.4-4.3,9.9c-5.9,5.1-12.6,9.2-19.9,12
		c-2.6,1-5.3,1.9-7.4,3.8s-3.3,5.1-1.9,7.5s4.6,3.2,7.4,2.6s5.1-2.1,7.7-3.1c4.9-1.9,11.2-1.8,14.4,2.3c2.1,2.7,2.4,6.5,1.4,9.8
		c-1.1,3.3-2.9,6.3-5.2,8.8c-7.6,9.4-17.5,16.7-28.8,21c-11.3,4.2-21.8,5.5-33.1,1.7"/>
	<path class="st1" d="M437.8,277.4c0,0-0.1,0.1-0.3,0.3l-1,1c-0.9,0.8-2.3,2.1-4,3.7c-4.8,4.6-9.2,9.5-13.3,14.8
		c-2.6,3.3-5.2,7.1-8,11.2s-5.7,8.5-8.6,13.2c-3.1,4.9-5.9,10-8.4,15.2c-1.3,2.7-2.5,5.6-3.6,8.5s-2.4,5.8-3.6,8.8
		c-4.6,11.2-8.6,22.6-11.9,34.2c-2.7,9.5-4.4,19.2-5.2,29c-0.5,6.6-0.5,13.3,0.2,19.9c0.2,2.3,0.5,4.1,0.7,5.4
		c0.1,0.6,0.1,1.1,0.2,1.4s0.1,0.5,0.1,0.5s-0.6-2.5-1.1-7.2c-0.7-6.6-0.8-13.3-0.3-19.9c0.8-9.8,2.5-19.6,5.1-29.1
		c3.3-11.6,7.2-23.1,11.8-34.2c1.2-3,2.4-5.9,3.6-8.8c1.2-2.9,2.4-5.8,3.7-8.5c2.5-5.2,5.4-10.3,8.5-15.3c2.9-4.7,5.9-9.1,8.7-13.2
		s5.5-7.8,8.1-11.1c4.1-5.3,8.6-10.2,13.4-14.7c1.7-1.6,3.1-2.8,4-3.6l1.1-0.9C437.6,277.4,437.8,277.4,437.8,277.4z"/>
	<path class="st1" d="M393.7,336.5c-0.2-0.5-0.3-1-0.4-1.5c-0.2-1-0.5-2.4-0.7-4.1c-0.6-3.5-1.2-8.3-1.9-13.7s-1.4-10.2-2.1-13.6
		c-0.3-1.7-0.6-3.1-0.8-4.1c-0.1-0.5-0.2-1-0.3-1.5c0.2,0.5,0.3,1,0.5,1.5c0.3,1,0.6,2.4,1,4.1c0.8,3.5,1.5,8.3,2.2,13.6
		s1.3,10.1,1.8,13.7c0.2,1.7,0.4,3.1,0.6,4.1C393.7,335.5,393.7,336,393.7,336.5z"/>
	<path class="st1" d="M439.3,326.9c-0.2,0.1-0.3,0.1-0.5,0.1l-1.4,0.1c-1.2,0.1-2.9,0.3-5,0.6c-4.2,0.5-10,1.5-16.2,2.8
		s-12,2.8-16,4c-2,0.6-3.7,1.1-4.8,1.4l-1.3,0.4c-0.2,0.1-0.3,0.1-0.5,0.1c0,0,0.1-0.1,0.4-0.2l1.3-0.5c1.1-0.4,2.7-1,4.8-1.6
		c4-1.3,9.7-2.8,16-4.1s12.1-2.2,16.3-2.7c2.1-0.2,3.8-0.4,5-0.4l1.4,0C439,326.9,439.2,326.9,439.3,326.9z"/>
	<path class="st1" d="M375,387.2c-0.1-0.2-0.2-0.4-0.3-0.5c-0.2-0.4-0.5-1-0.8-1.6c-0.7-1.4-1.7-3.5-2.8-6
		c-2.3-5.1-5.3-12.3-8.5-20.3s-6.1-15.2-8.4-20.3l-2.7-6.1c-0.3-0.7-0.5-1.2-0.7-1.7c-0.1-0.2-0.2-0.4-0.2-0.6
		c0.1,0.2,0.2,0.4,0.3,0.5l0.8,1.6c0.7,1.4,1.7,3.5,2.8,6c2.3,5.1,5.3,12.3,8.5,20.3s6.1,15.2,8.4,20.3c1.1,2.5,2,4.6,2.7,6.1
		c0.3,0.7,0.5,1.2,0.7,1.7C374.9,386.8,375,387,375,387.2z"/>
	<path class="st1" d="M435.4,366.4c-0.2,0.1-0.4,0.2-0.6,0.2l-1.8,0.6l-6.5,2.2c-5.5,1.9-13,4.6-21.3,7.6s-15.8,5.6-21.3,7.4
		c-2.8,0.9-5,1.6-6.5,2.1l-1.8,0.5c-0.2,0.1-0.4,0.1-0.6,0.1c0.2-0.1,0.4-0.2,0.6-0.2l1.8-0.6l6.5-2.2c5.5-1.9,13-4.6,21.3-7.6
		s15.8-5.6,21.3-7.4c2.8-0.9,5-1.6,6.5-2.1l1.8-0.5C435,366.5,435.2,366.4,435.4,366.4z"/>
	<polygon class="st2" points="120.7,248.1 137.7,297.6 214.4,297.6 213.9,295.1 182.8,294.1 168.5,248.1 	"/>
	<path class="st3" d="M154.7,271.4c0.5,2-0.4,4-1.9,4.4s-3.3-0.9-3.8-2.9s0.4-4,1.9-4.5S154.2,269.3,154.7,271.4z"/>
	<polygon class="st4" points="291.3,355.3 316.8,442.9 319.9,442.9 300.3,355 	"/>
	<polygon class="st4" points="244.4,355.7 224.7,442.8 228.2,442.8 254.6,355.7 	"/>
	<polygon class="st4" points="267.5,353.7 270.6,442.8 274.7,442.8 276.5,354.1 	"/>
	<polygon class="st4" points="243.5,391 302.8,389.1 303.1,395.3 239.1,397.7 	"/>
	<polygon class="st1" points="244.4,355.7 243.5,360.2 253.3,360.2 254.5,355.7 	"/>
	<polygon class="st1" points="267.5,354 267.7,360.2 276.4,360.2 276.5,355 	"/>
	<polyline class="st1" points="268.8,390.2 269,396.6 264.4,396.8 262.9,390.4 268.8,390.2 	"/>
	<polygon class="st1" points="275.8,389.9 275.7,396.3 279.3,396.2 280.1,389.9 	"/>
	<polygon class="st1" points="290.9,354 292.2,358.5 301.1,358.5 300.1,354.1 	"/>
	<path class="st0" d="M224.8,349.5c8.4-4.1,42.5-1.9,42.5-1.9s-9.6-119.3,2.8-120.3s40.6-9.9,45.7,8.1c5.3,19-1.9,120.4-9,119.4
		c-16.2-2.2-66.3,3.6-81.4,0C221.4,354,224.8,349.5,224.8,349.5z"/>
	<path class="st1" d="M305,237.5c0.1,0,0.3,0.3,0.7,1c0.2,0.3,0.4,0.8,0.7,1.2s0.5,1.1,0.8,1.8c1.6,3.9,2.6,7.9,2.9,12.1
		c0.5,6.1,0.7,12.2,0.5,18.3c-0.1,6.9-0.5,14.5-1.2,22.4s-1.4,15.5-2.1,22.3s-1.4,13-2.4,18.2c-0.7,4.1-1.8,8.1-3.1,12
		c-0.4,1.5-1,2.9-1.8,4.1c0.3-1.5,0.7-2.9,1.2-4.4c1.1-3.9,1.9-8,2.5-12c0.8-5.1,1.4-11.3,2-18.1s1.3-14.4,2-22.3s1.1-15.4,1.3-22.3
		c0.3-6.1,0.2-12.1-0.1-18.2c-0.3-4.1-1-8.1-2.3-11.9C305.7,239,304.9,237.6,305,237.5z"/>
	<path class="st1" d="M298.7,350.8c-0.1,0.5-7.8-0.7-17.4-1.5s-17.4-0.9-17.5-1.4s7.9-1.2,17.6-0.4S298.8,350.4,298.7,350.8z"/>
	<rect x="79.9" y="296.9" class="st2" width="272.2" height="8.9"/>
	<polygon class="st4" points="101.2,305.8 79.9,442.8 90.6,442.9 127.1,305.8 	"/>
	<polyline class="st4" points="332.3,304.3 344.8,442.9 334.9,442.9 308,310.1 306.6,300.2 332.3,304.3 	"/>
	<polygon class="st1" points="307.4,305.8 308.4,312 332.9,311.1 332.5,305.8 	"/>
	<polygon class="st1" points="101.2,305.8 100.2,312.1 125.6,311.4 127.1,305.8 	"/>
	<path class="st1" d="M89.8,298.1v-10.7l5.4-1.2l-5.4-3.3v-10.1h57.4v6.1h3.2c-0.5,0.6,1,1.3,0.4,1.6c-1.2,0.4-4,1.1-4,1.1l0.7,4.2
		l-3.2,0.7l4.3,3l0.7,8l-59.6,1.2"/>
	<path class="st0" d="M84.6,298.1v-10.7l5.4-1.2l-5.4-3.3v-10.1H142v6.1h3.2c-0.5,0.6,1.1,1.3,0.4,1.6c-1.2,0.4-4,1.1-4,1.1l0.7,4.2
		l-3.2,0.7l4.3,3l0.7,8l-59.5,1.2"/>
	<path class="st0" d="M353.2,283c-1.3-1-3-1.5-4.6-1.3c0-0.9,0-1.4,0-1.4h-25.2c0,0-0.8,16.6,11.9,17.2c5.7,0.3,9-2.3,10.8-5.5
		c0.9,0.2,1.9,0.3,2.9,0.4c1.4,0.1,2.8-0.3,4-1.1c1.3-1,2-2.6,1.9-4.3C354.9,285.4,354.3,284,353.2,283z M351.5,289.2
		c-1.1,0.8-3,0.7-4.2,0.5c0.6-1.8,1-3.6,1.2-5.5c1.1-0.1,2.2,0.1,3.1,0.7c0.5,0.5,0.8,1.3,0.8,2
		C352.4,287.7,352.1,288.6,351.5,289.2L351.5,289.2z"/>
	<path class="st1" d="M174.8,166.9l-12.6-12.1H95.9v-39.7l93.5-2V154H173L174.8,166.9z M96.9,153.8h65.7l10.8,10.4l-1.5-11.2h16.5
		v-38.8l-91.5,1.9V153.8z"/>
	<rect x="108.3" y="125.1" class="st1" width="31.2" height="3.7"/>
	<rect x="108.3" y="133.5" class="st1" width="69.6" height="3.7"/>
	<rect x="108.3" y="140.7" class="st1" width="69.6" height="3.7"/>
	<polygon class="st1" points="141.1,35.8 143,87.4 220.8,87.4 292.4,63.4 292.4,32 	"/>
	<path class="st0" d="M221.2,56.9l0.6,42.3H288c0,0,6.4,29.4,6.4,27.8s8.1-28.2,8.1-28.2l85.4-0.8V54.9L221.2,56.9z"/>
	<rect x="239.1" y="71.3" class="st3" width="130.8" height="4.1"/>
	<rect x="239.1" y="81" class="st3" width="130.8" height="4.1"/>
</g>
<g id="freepik--Floor--inject-58">
	<path class="st5" d="M393.5,443.1c0,0.1-74.8,0.3-167,0.3s-167-0.1-167-0.3s74.8-0.3,167-0.3S393.5,442.9,393.5,443.1z"/>
</g>
<g id="freepik--Plant--inject-58">
	<path class="st6" d="M142.4,309.9c-5.7,0.9-8.2,7.9-7.7,13.6s2.8,11.3,2.2,17c-0.8,7.2-6.3,13.4-6.9,20.6
		c-0.8,8.6,5.3,16.1,7.1,24.5c0.9,4.1,0.8,8.4,2.3,12.3c3.1,7.9,12,11.8,19.9,8.7c5.8-2.3,9.7-7.8,9.8-14c0.1-6.6-3.9-12.8-3.4-19.3
		c0.4-4.8,3.2-9.4,2.6-14.3c-0.7-5.7-6-9.8-7.9-15.3s-0.1-11.5-0.7-17.2C158.5,316.2,152.8,309.1,142.4,309.9"/>
	<path class="st6" d="M113.5,359.8c-1,9.5,3.3,20.8,8.2,29c5,8.3,12.5,14.8,21.4,18.6c1,0.4,2.2,0.8,3.1,0.1
		c0.6-0.7,0.9-1.6,0.8-2.5C147.1,384.2,133.5,365.7,113.5,359.8"/>
	<path class="st7" d="M113.5,359.8c-1,9.5,3.3,20.8,8.2,29c5,8.3,12.5,14.8,21.4,18.6c1,0.4,2.2,0.8,3.1,0.1
		c0.6-0.7,0.9-1.6,0.8-2.5C147.1,384.2,133.5,365.7,113.5,359.8"/>
	<path class="st5" d="M155.1,427.4c-0.1-0.2-0.2-0.3-0.3-0.5c-0.2-0.4-0.4-0.9-0.7-1.6c-0.6-1.4-1.4-3.3-2.5-5.7
		c-2.8-6.3-6-12.4-9.5-18.4c-3.5-5.9-7.3-11.7-11.3-17.3c-1.6-2.1-2.9-3.9-3.8-5l-1-1.4c-0.2-0.3-0.3-0.5-0.3-0.5
		c0.1,0.1,0.3,0.3,0.4,0.4c0.3,0.4,0.7,0.8,1.1,1.3c1,1.1,2.3,2.8,3.9,4.9c4.2,5.5,8,11.3,11.5,17.2c3.5,6,6.6,12.1,9.3,18.5
		c1.1,2.4,1.9,4.4,2.4,5.8c0.2,0.6,0.4,1.2,0.6,1.6C155,427,155.1,427.2,155.1,427.4z"/>
	<path class="st5" d="M149,336.3c0.1,0.3,0.1,0.6,0.1,0.9c0,0.6,0.1,1.5,0.2,2.6c0.1,2.3,0.4,5.6,0.6,9.7c0.5,8.2,1.2,19.5,2.1,31.9
		s1.7,23.8,2.4,31.9c0.3,4,0.6,7.3,0.7,9.7c0.1,1.1,0.1,2,0.2,2.6c0,0.3,0,0.6,0,0.9c-0.1-0.3-0.1-0.6-0.1-0.9
		c-0.1-0.6-0.2-1.5-0.3-2.6l-0.9-9.7c-0.7-8.2-1.7-19.4-2.5-31.9s-1.5-23.8-2-31.9c-0.2-4-0.3-7.4-0.4-9.7c0-1.1-0.1-2-0.1-2.6
		C148.9,336.9,149,336.6,149,336.3z"/>
	<path class="st5" d="M140.2,413.8h23.9v17.6c0,6.3-5.1,11.5-11.5,11.5c0,0,0,0,0,0l0,0c-6.1,0-11.1-4.8-11.5-10.9L140.2,413.8z"/>
</g>
<g id="freepik--speech-bubble--inject-58">
	<path class="st6" d="M397.5,152.3c-3.5,20-22.4,33.3-42.4,29.9c-9.9-1.7-18.6-7.4-24.2-15.7l-17.4,2.7l11.8-16.4
		c-3.8-19.9,9.3-39.1,29.3-42.9c19.9-3.8,39.1,9.3,42.9,29.3C398.2,143.5,398.2,148,397.5,152.3z"/>
	<path class="st3" d="M375.8,137.4h-20.4v-4.9c0-3.5,2.8-6.3,6.3-6.3c3,0,5.8,2.2,6.3,5.1c0.1,0.4,0.4,0.6,0.8,0.5
		c0.4-0.1,0.6-0.4,0.5-0.8c-0.7-3.6-4-6.2-7.7-6.2c-4.3,0-7.7,3.5-7.7,7.7v4.9h-6.3c-1.2,0-2.1,0.9-2.1,2.1v19.7
		c0,1.2,0.9,2.1,2.1,2.1h28.1c1.2,0,2.1-0.9,2.1-2.1v-19.7C378,138.3,377,137.4,375.8,137.4z M376.5,159.2c0,0.4-0.3,0.7-0.7,0.7
		h-28.1c-0.4,0-0.7-0.3-0.7-0.7v-19.7c0-0.4,0.3-0.7,0.7-0.7h28.1c0.4,0,0.7,0.3,0.7,0.7V159.2z M363.2,149.4c0,0.8-0.6,1.4-1.4,1.4
		s-1.4-0.6-1.4-1.4c0-0.8,0.6-1.4,1.4-1.4S363.2,148.6,363.2,149.4z"/>
</g>
<g id="freepik--Character--inject-58">
	<path class="st8" d="M314.1,170.8c-1.8-0.5-5,9.1-5.5,6.6s5.3-11.3,3.4-11.8c-2.5-0.6-5.6,9.5-6,10.3s-1.5,0.4-1.2-0.4
		c0.5-1.1,5.3-12.4,2.9-13c-1.3-0.4-1.8,2.1-1.8,2.1s-3.8,10.9-4.9,10.6s0.9-6.8,1.7-9s0.1-3.4-1.1-2.9c-0.8,0.3-3.5,6.8-4.3,8.9
		s-2.8,8-4.1,4.3s-3.8-6-4.9-6.2c-0.7,0-1.3,0.5-1.3,1.2c0,0.4,0.1,0.7,0.4,1c0.8,1,1.5,2.2,2.1,3.4c0.5,1,0.8,2,0.9,3.1
		c0.3,2.1,0.3,4.3,0.1,6.4v0.6l-11.9,29.5l-13.2-29c-4.2-14.1-21.7-14.6-21.7-14.6l-17.3-1.8c-6.3-2.4-13.2-2-17.1,0.2
		c-4.9,2.9-8.4,7.8-9.5,13.5c-4,19.6-17.9,89.9-19,120.7l0,0c-0.7,3.3-1.2,6.7-1.6,10.1c-0.3,5.3,0.1,5.4,0.8,5.3
		c1.7-0.2,1-9.4,2.3-7.5s-0.4,11.3,1.3,11.1c2.4-0.4,1.4-10,1.4-10.8s1.2-0.9,1.1-0.1c0,1.1-0.1,12.2,2.2,11.9
		c1.2-0.2,0.7-2.4,0.7-2.4s-0.7-10.5,0.3-10.6s1.7,6,1.8,8.1s1.1,2.9,2,2.1c0.6-0.5,0.6-6.9,0.4-9s-0.5-7.7,1.9-5.1s5.3,3.7,6.3,3.5
		c0.6-0.2,0.9-0.9,0.7-1.5c-0.1-0.3-0.4-0.6-0.7-0.7c-1.1-0.6-2.1-1.3-2.9-2.1c-0.7-0.6-1.3-1.4-1.8-2.2c-0.1-0.3-0.3-0.5-0.4-0.8
		c0.4-5.9,3.8-56.1,12.7-90.6l1.7-4.3c1.7,7,0.7,21.3-3,27.5c-6.1,10.3-5.6,35.5-5.6,35.5l55.9,2.1c0,0-0.4-9.3-0.9-21.1l-1.2-34.8
		l0.1-6.7l0.3-0.7c2.7,4.3,6.1,9.8,10.2,16.9c13.9,23.4,25.6-4.5,25.6-4.5l11.9-33.6c3-4.2,5.8-8.6,8.4-13.1
		C315.2,171.2,314.8,171,314.1,170.8z"/>
	<path class="st6" d="M228.1,438.8v-9l-16.9-0.1l-0.1,13.2l1.1,0.1c4.7,0.3,23.8,1.1,26.9,0.2C242.5,442.1,228.1,438.8,228.1,438.8z
		"/>
	<path class="st5" d="M239.4,442.3c0,0.2-6.3,0.3-14.1,0.3s-14.1-0.1-14.1-0.3s6.3-0.3,14.1-0.3S239.4,442.2,239.4,442.3z"/>
	<path class="st5" d="M228.4,440.6c-0.1-0.1,0-0.6,0.4-1s0.8-0.7,0.9-0.6s-0.1,0.5-0.4,1S228.6,440.7,228.4,440.6z"/>
	<path class="st5" d="M229.5,441.2c-0.1-0.1-0.1-0.6,0.3-1.2s0.8-0.9,0.9-0.8s-0.1,0.6-0.4,1.1S229.7,441.3,229.5,441.2z"/>
	<path class="st5" d="M216.2,442.3c-0.1,0-0.3-0.2-0.7-0.6c-0.5-0.5-1-1-1.5-1.4c-0.5-0.4-1.2-0.7-1.8-0.8c-0.5-0.1-0.8,0-0.9-0.1
		s0.3-0.3,0.9-0.3c0.8,0,1.5,0.2,2.1,0.7c0.6,0.5,1.1,1,1.5,1.6C216.1,441.9,216.3,442.2,216.2,442.3z"/>
	<path class="st5" d="M228.5,439c0.1,0.1-0.2,0.5-0.7,0.6s-0.9,0.1-0.9,0s0.3-0.3,0.7-0.5S228.4,438.8,228.5,439z"/>
	<path class="st5" d="M228.2,438.1c0,0.2-0.4,0.3-1,0.3s-1-0.1-1-0.3s0.5-0.3,1-0.3S228.2,437.9,228.2,438.1z"/>
	<path class="st6" d="M246,435.6l2.7-8.6l-16.1-5.1l-4.1,12.6l1,0.4c4.4,1.7,22.4,8.1,25.6,8.2C258.7,443,246,435.6,246,435.6z"/>
	<path class="st5" d="M255.7,442.3c0,0.2-6.1-1.6-13.6-3.9s-13.5-4.3-13.4-4.5s6.1,1.6,13.6,3.9S255.8,442.2,255.7,442.3z"/>
	<path class="st5" d="M245.7,437.5c-0.1-0.1,0.1-0.5,0.6-0.9s1-0.4,1-0.3s-0.3,0.5-0.7,0.8S245.8,437.6,245.7,437.5z"/>
	<path class="st5" d="M246.6,438.3c-0.1-0.1,0.1-0.6,0.6-1s1-0.6,1.1-0.5s-0.2,0.5-0.7,0.9S246.7,438.4,246.6,438.3z"/>
	<path class="st5" d="M233.6,435.4c-0.1,0-0.2-0.3-0.5-0.8c-0.3-0.6-0.6-1.2-1-1.8c-0.4-0.5-0.9-1-1.5-1.3c-0.5-0.2-0.8-0.2-0.8-0.3
		s0.4-0.2,0.9,0c0.7,0.2,1.4,0.7,1.9,1.3c0.4,0.6,0.7,1.3,0.9,2C233.6,435,233.7,435.4,233.6,435.4z"/>
	<path class="st5" d="M246.3,435.8c0,0.1-0.3,0.4-0.9,0.4s-0.9-0.2-0.9-0.3s0.4-0.2,0.9-0.2S246.2,435.7,246.3,435.8z"/>
	<path class="st5" d="M246.3,434.9c0,0.1-0.5,0.1-1,0s-1-0.4-0.9-0.6s0.5-0.1,1.1,0S246.3,434.8,246.3,434.9z"/>
	<path class="st8" d="M243.5,172.9c-0.3-1.9,0.8-9.7,0.8-9.7s7.2-0.5,7.9-7.6s0.8-23.5,0.8-23.5l-12.8-6.8l-14.7,10.4l-3.9,8.3
		l4.9,18v9.3L243.5,172.9z"/>
	<path class="st5" d="M251.9,143.1c0.1-0.1,0-0.3-0.3-0.6c-0.8-0.7-1.9-0.8-2.9-0.3c-0.3,0.2-0.5,0.4-0.4,0.5s0.9-0.3,1.8-0.2
		c0.1,0,0.2,0,0.4,0.1c-0.4,0.2-0.6,0.8-0.4,1.2c0.2,0.4,0.8,0.6,1.2,0.4c0.3-0.2,0.5-0.4,0.5-0.8
		C251.9,143.3,251.9,143.2,251.9,143.1C251.8,143.1,251.9,143.1,251.9,143.1z"/>
	<path class="st5" d="M241.1,142.7c0.1-0.1,0-0.3-0.3-0.6c-0.4-0.3-0.9-0.6-1.4-0.6c-0.5,0-1,0.1-1.5,0.3c-0.3,0.2-0.4,0.4-0.4,0.5
		s0.8-0.3,1.8-0.2c0.2,0,0.3,0,0.5,0.1c-0.4,0.2-0.6,0.7-0.4,1.2s0.7,0.6,1.2,0.4c0.1-0.1,0.2-0.2,0.3-0.3
		C241.1,143.3,241.1,143,241.1,142.7L241.1,142.7z"/>
	<path class="st5" d="M244.3,151.1c0.5-0.1,1.1-0.2,1.6-0.1c0.2,0,0.5,0,0.6-0.2c0-0.3,0-0.6-0.1-0.8c-0.2-0.6-0.4-1.3-0.6-2
		c-0.6-1.7-1-3.5-1.3-5.3c0.3,0.5,0.4,1,0.6,1.5c0.3,0.9,0.7,2.3,1.1,3.7l0.6,2c0.1,0.3,0.2,0.7,0.1,1c-0.1,0.2-0.2,0.3-0.4,0.3
		c-0.1,0-0.3,0-0.4,0C245.4,151.2,244.9,151.2,244.3,151.1z"/>
	<path class="st9" d="M241.1,151.9c0.8,0.3,2.7,1.7,4.7,1.8c-0.8,1-2.1,1.3-3.3,0.8C240.4,153.6,241.1,151.9,241.1,151.9z"/>
	<path class="st10" d="M244.2,163.2c-3.4-0.2-6.6-1.5-9.3-3.5c0,0,2,5.3,9.1,5.2L244.2,163.2z"/>
	<path class="st5" d="M257.6,121.6c-1.1-1-2.6-1.4-4-1.1c-1.4,0.4-2.8,0.8-4.1,1.4c-1.3,0.6-2.8,0.7-4.2,0.2
		c-1.9-0.7-2.9-2.7-4.5-3.8c-2.6-1.9-6.3-1.3-8.2,1.3c-0.2,0.3-0.4,0.6-0.6,1c-0.8,1.7-1,4-2.6,4.8c-1.4,0.7-2.9,0-4.4-0.5
		c-1.3-0.5-2.7-0.5-4.1-0.1c-1.4,0.4-2.4,1.6-2.6,3c-0.1,1.3,0.7,2.5,0.6,3.7c-0.1,1.9-1.9,3.3-3.5,4.3s-3.5,2.2-3.9,4.1
		c-0.1,1.7,0.6,3.3,1.9,4.3c1.3,1,2.5,2.1,3.7,3.2c1.1,1.2,1.7,3.1,0.9,4.5c-0.4,0.7-1.1,1.3-1.2,2.1c-0.3,1.4,1,2.4,2.2,3.1
		c1.2,0.8,2.6,1.3,4,1.6c0.6,0.1,1.1,0,1.7-0.1c1,2.9,1.6,5.2,1.6,5.2c1.2,1.9,1.2-4.4,1.2-4.4s0.6-6.1-0.4-8.4c0,0-3.6,1.4-4.8-5.1
		c-0.6-3.2,4.2-5.1,5.8-1.2l3.1,0.1c0,0-0.4-12.6,6.8-10.4c12.6,3.9,19.3-0.2,20.2-10.4l0,0C258.3,123.1,258.1,122.2,257.6,121.6z"
		/>
	<path class="st10" d="M226.9,149c0,0-0.1,0.1-0.3,0.2c-0.2,0.1-0.5,0.1-0.8,0.1c-0.8-0.5-1.3-1.3-1.3-2.3c0-0.5,0-1,0.2-1.5
		c0.1-0.4,0.4-0.7,0.7-0.9c0.2-0.1,0.5,0,0.6,0.2c0.1,0.2,0.1,0.3,0.1,0.3s0.1-0.1,0.1-0.4c0-0.1-0.1-0.3-0.3-0.4
		c-0.2-0.1-0.4-0.2-0.6-0.1c-0.5,0.1-0.9,0.5-1,1c-0.2,0.5-0.3,1.1-0.3,1.7c0,1.1,0.7,2.1,1.7,2.5c0.3,0.1,0.7,0,1-0.2
		C226.9,149.1,226.9,149,226.9,149z"/>
	<path class="st5" d="M257.8,260.2l-22.2-1.7l0,0l-33.7-2.7l3.8,180.8l29.2-0.4c0,0,0-2-0.1-5.5l17.2,4.7c0,0,16.7-56.4,22.4-79.6
		C279.1,336.5,257.8,260.2,257.8,260.2z M234.5,402.6c-0.4-41.7-1.1-108.5-0.4-117.2c0,0,16.4,58.2,16.5,63.2
		C250.7,351.6,241.6,380.4,234.5,402.6z"/>
	<polygon class="st11" points="234.5,402.6 234.8,430.7 239.6,432 238.4,390.4 	"/>
	<path class="st12" d="M233.7,285.2c-0.1,0,0.7-1.2,1.3-3.4c0.8-2.8,1.1-5.7,1.1-8.6c0-3.4-0.2-6.5-0.2-8.8c0-0.9,0.1-1.8,0.2-2.7
		c0-0.3,0.1-0.7,0.2-1c0.1,0,0,1.4,0,3.6s0.3,5.3,0.4,8.8c0.1,3-0.3,5.9-1.2,8.7c-0.3,0.8-0.7,1.7-1.1,2.4
		C234.1,284.7,233.9,285,233.7,285.2z"/>
	<path class="st12" d="M230.6,262.4c0,0,0.1-0.2,0.4-0.3c0.5-0.2,1-0.2,1.5,0c0.8,0.2,1.3,0.9,1.4,1.7c0.2,1.2-0.6,2.3-1.8,2.6
		c-0.8,0.1-1.6-0.1-2.1-0.7c-0.5-0.6-0.7-1.4-0.4-2.1C229.8,262.9,230.1,262.5,230.6,262.4c0.3-0.2,0.5-0.2,0.5-0.2
		c-0.5,0.3-0.9,0.8-1.1,1.4c-0.2,0.6,0,1.2,0.4,1.6c0.6,0.7,1.7,0.9,2.4,0.3c0.5-0.4,0.7-1,0.6-1.7c-0.1-0.6-0.4-1.1-1-1.4
		C231.8,262.2,231.2,262.2,230.6,262.4z"/>
	<path class="st12" d="M259.9,269.2c-0.6,0.5-1.3,0.7-2.1,0.8c-3.7,0.7-7.4-1.4-8.7-5c-0.3-0.7-0.4-1.4-0.4-2.2c0.1,0,0.2,0.8,0.7,2
		c0.7,1.6,1.9,2.9,3.4,3.8c1.5,0.8,3.2,1.2,4.9,1C259.1,269.4,259.9,269.1,259.9,269.2z"/>
	<path class="st12" d="M214.5,258.3c0,0,0.2,0.3,0.3,0.8c0.2,0.7,0.3,1.5,0.2,2.2c-0.1,5.2-4.3,9.4-9.5,9.5c-0.7,0-1.5,0-2.2-0.2
		c-0.3,0-0.5-0.1-0.8-0.3c1,0.1,2,0.1,3,0.1c4.9-0.3,8.8-4.2,9.1-9.1C214.6,260.3,214.6,259.3,214.5,258.3z"/>
	<path class="st12" d="M235.1,429.4c0,0.2-6.5,0.3-14.6,0.3s-14.6-0.1-14.6-0.3s6.5-0.3,14.6-0.3S235.1,429.2,235.1,429.4z"/>
	<path class="st12" d="M209.7,429.8c-0.2,0-0.6-35.7-1-79.6s-0.6-79.6-0.4-79.6s0.6,35.6,1,79.6S209.9,429.8,209.7,429.8z"/>
	<path class="st12" d="M235.4,409.6c0-0.1,0-0.2,0.1-0.3l0.3-1c0.3-0.9,0.6-2.1,1.1-3.7c1-3.2,2.4-7.9,4.2-13.6s3.9-12.6,6.3-20.2
		c1.2-3.8,2.4-7.8,3.7-11.9l2-6.3c0.3-1.1,0.7-2.2,1-3.2c0-1.1-0.2-2.2-0.4-3.3c-1-4.5-2.2-8.8-3.3-13s-2.3-8.2-3.5-12
		c-2.3-7.6-4.4-14.5-6.1-20.2s-3.2-10.4-4.2-13.6c-0.5-1.6-0.9-2.8-1.1-3.7l-0.3-1c0-0.1-0.1-0.2-0.1-0.3c0.1,0.1,0.1,0.2,0.1,0.3
		c0.1,0.2,0.2,0.6,0.3,1c0.3,0.9,0.7,2.1,1.2,3.7c1,3.2,2.5,7.9,4.4,13.6s4,12.6,6.2,20.2c1.1,3.8,2.3,7.8,3.5,12s2.4,8.5,3.3,13
		c0.1,0.6,0.2,1.1,0.3,1.7c0.1,0.3,0.1,0.6,0.1,0.9c0,0.3,0,0.6,0,0.9c-0.3,1.2-0.7,2.2-1,3.3l-2,6.3c-1.3,4.1-2.6,8.1-3.8,11.9
		l-6.4,20.1c-1.8,5.7-3.3,10.3-4.4,13.6l-1.2,3.7c-0.1,0.4-0.2,0.7-0.3,1C235.5,409.4,235.5,409.5,235.4,409.6z"/>
	<path class="st12" d="M234.8,422.9c0.9,0.2,1.8,0.5,2.7,0.9l6.7,2.3l6.7,2.3c0.9,0.3,1.9,0.6,2.7,1.1c-1-0.1-1.9-0.4-2.9-0.7
		c-1.8-0.5-4.1-1.3-6.8-2.2s-5-1.8-6.6-2.5C236.4,423.8,235.6,423.4,234.8,422.9z"/>
	<path class="st12" d="M219.6,339.7c0.1-0.1,0.3-0.3,0.4-0.4c0.5-0.3,1-0.5,1.5-0.6c0.8-0.2,1.7-0.2,2.6,0.1c1.1,0.3,2.1,1,2.8,2
		c0.8,1.2,1.2,2.6,1.1,4c0,1.5-0.1,3-0.1,4.7c0,1.7-0.1,3.5-0.4,5.2c-0.2,0.9-0.5,1.8-1,2.6c-0.6,0.8-1.4,1.5-2.4,1.7
		c-1.9,0.5-4-0.1-5.3-1.6c-1.2-1.3-2-3-2.2-4.7c-0.4-2.9-0.2-5.9,0.7-8.7c0.3-1.1,0.7-2.2,1.2-3.1c0.4-0.8,1.1-1.3,1.9-1.7
		c0.5-0.2,1.1-0.3,1.6-0.1c0.2,0,0.4,0.1,0.5,0.2c-0.7-0.2-1.4-0.1-2.1,0.1c-0.7,0.3-1.4,0.9-1.8,1.6c-0.5,1-0.9,2-1.1,3.1
		c-0.7,2.8-0.9,5.7-0.5,8.5c0.2,1.7,0.9,3.2,2.1,4.4c1.2,1.3,3.1,1.8,4.8,1.4c0.8-0.3,1.5-0.8,2-1.5c0.5-0.7,0.8-1.5,1-2.4
		c0.3-1.7,0.4-3.4,0.4-5.1c0.1-1.6,0.2-3.2,0.2-4.6c0.1-1.3-0.3-2.6-0.9-3.7c-0.6-0.9-1.5-1.6-2.5-1.9c-0.8-0.3-1.6-0.3-2.4-0.1
		C220.9,339.1,220.2,339.4,219.6,339.7z"/>
	<path class="st12" d="M261.6,348c-1.8,0.4-3.7,0.7-5.5,0.7c-1.8,0.2-3.7,0.3-5.6,0.1c1.8-0.4,3.7-0.7,5.5-0.7
		C257.9,347.9,259.7,347.9,261.6,348z"/>
	<path class="st12" d="M259.7,351.3c-2.9-0.4-5.6-1.2-8.3-2.4c1.4,0.1,2.9,0.4,4.2,0.9C257,350.2,258.4,350.7,259.7,351.3z"/>
	<path class="st12" d="M273,342.3c0.2,0.1,0.3,0.1,0.5,0.2c0.4,0.3,0.7,0.7,1,1.1c0.7,1.1,0.8,3,0.8,5.3c0.1,2.7-0.4,5.3-1.4,7.8
		c-0.6,1.5-1.6,2.8-2.8,3.9c-0.6,0.6-1.4,1.1-2.2,1.3c-0.5,0.1-0.9,0.1-1.4,0c-0.5-0.1-0.9-0.4-1.2-0.8c-0.5-0.7-0.8-1.6-1-2.5
		c-0.2-0.8-0.3-1.6-0.3-2.5c-0.1-1.6,0-3.2,0.2-4.7c0.4-2.6,1.3-5.2,2.7-7.5c0.5-0.9,1.2-1.7,2.2-2.2c0.7-0.4,1.6-0.4,2.3-0.1
		c0.5,0.2,0.9,0.5,1.1,1c0.1,0.2,0.1,0.3,0.1,0.5c0,0-0.1-0.2-0.2-0.4c-0.3-0.4-0.6-0.7-1.1-0.8c-0.7-0.2-1.5-0.2-2.1,0.2
		c-0.9,0.5-1.5,1.2-2,2.1c-1.3,2.3-2.1,4.8-2.5,7.4c-0.2,1.5-0.3,3.1-0.2,4.6c0.1,0.8,0.2,1.6,0.3,2.4c0.1,0.8,0.4,1.6,0.8,2.2
		c0.5,0.6,1.3,0.8,2,0.5c0.8-0.2,1.4-0.6,2-1.2c1.1-1,2-2.3,2.6-3.7c1-2.4,1.5-5,1.5-7.6c0.2-1.7,0-3.5-0.6-5.2
		C273.9,343.2,273.5,342.7,273,342.3z"/>
	<polygon class="st5" points="289.7,160.1 296.4,189 312,185.6 306.5,155.9 	"/>
	<polygon class="st3" points="291.5,161.6 296.7,184.7 310.2,181.4 305.4,158.1 	"/>
	<path class="st12" d="M305.4,185c0,0.8-0.6,1.4-1.4,1.4s-1.4-0.6-1.4-1.4c0-0.8,0.6-1.4,1.4-1.4c0,0,0,0,0,0
		C304.8,183.6,305.4,184.2,305.4,185z"/>
	<polygon class="st12" points="301.2,158.4 295.1,159.8 295.1,159.9 301.3,158.5 	"/>
	
		<rect x="293.6" y="161.4" transform="matrix(0.9757 -0.2192 0.2192 0.9757 -29.1457 69.7335)" class="st0" width="12.2" height="9.8"/>
	<polygon class="st1" points="295.2,173.4 296.1,176.8 307.8,174.1 307,170.4 	"/>
	<polygon class="st4" points="296.5,178.1 297.5,183.3 309.1,180.4 308,175.5 	"/>
	<path class="st6" d="M210.6,211.1c-0.3,1.8-0.8,4.4-1.4,7.5c6.8,0.3,15,0.6,23.9,1.1c9.3,0.4,18,0.9,25,1.2l-0.1-7.6
		c-7-0.3-15.4-0.7-24.6-1.1C225,211.9,217.2,211.5,210.6,211.1z"/>
	<path class="st6" d="M200.9,178.5c-1.3,2.4-2.5,5-3.4,7.6c7.4,0.3,21.3,0.8,37.1,1.6c14.1,0.6,26.6,1.3,34.4,1.7
		c-1-2.7-2.3-5.3-3.7-7.8c-7.8-0.3-18.5-0.8-30.4-1.3C221.1,179.5,208.8,178.9,200.9,178.5z"/>
	<path class="st6" d="M243.5,171.8c-0.5,0.7-1.1,1.3-1.7,1.8c5.3,0.2,10.4,0.5,14.9,0.7C252.4,173,248,172.1,243.5,171.8z"/>
	<path class="st6" d="M220.2,258.9l38.3,6v-4.3c-7.4-0.3-17-0.7-27.4-1.2L220.2,258.9z"/>
	<path class="st6" d="M259.6,217.3l2.9-3.8l-4.4-0.2L259.6,217.3z"/>
	<path class="st6" d="M204.6,243c-0.6,2.8-1.2,5.4-1.7,7.5c7.6,0.3,17.7,0.7,28.7,1.3c10.1,0.5,19.4,0.9,26.8,1.3l-0.1-7.6
		c-7.3-0.3-16.4-0.7-26.4-1.2C221.6,243.8,212,243.4,204.6,243z"/>
	<path class="st6" d="M202.8,250.9c-0.7,2.8-1.1,4.6-1.1,4.6l14,2.6c4.8,0.2,10,0.4,15.4,0.7c10.4,0.5,19.9,0.9,27.3,1.3l-0.1-6.7
		c-7.4-0.3-16.7-0.7-26.8-1.2C220.5,251.8,210.4,251.3,202.8,250.9z"/>
	<path class="st6" d="M206.3,235c-0.5,2.4-1,5-1.6,7.5c7.4,0.3,16.9,0.7,27.3,1.2c9.9,0.5,19.1,0.9,26.3,1.3l-0.1-7.6
		c-7.2-0.3-16.2-0.7-25.9-1.1S213.5,235.4,206.3,235z"/>
	<path class="st6" d="M194.9,194.2c-0.9,3.1-1.4,5.8-1.9,7.8c5.6,0.1,21.8,0.8,40.8,1.7c14.4,0.7,27.1,1.3,34.9,1.7l4-5.3
		c0,0-0.3-0.9-0.7-2.3c-7.2-0.2-21.5-0.9-37.9-1.6C216.6,195.4,201.5,194.6,194.9,194.2z"/>
	<path class="st6" d="M193,202.1c-0.3,1.6-0.5,2.6-0.5,2.6l18.5,4.2c0,0-0.1,0.6-0.3,1.7c6.6,0.3,14.4,0.6,22.8,1
		c11.4,0.5,21.7,1,29.3,1.4l5.7-7.4c-7.8-0.3-20.4-0.8-34.7-1.5C214.8,203.3,198.6,202.5,193,202.1z"/>
	<path class="st6" d="M209.1,219.1c-0.4,2.3-0.9,4.9-1.3,7.5c7,0.3,15.6,0.7,24.9,1.1c9.5,0.4,18.3,0.9,25.5,1.2l-0.1-7.6
		c-7.1-0.3-15.7-0.7-25-1.1C224.2,219.9,216,219.4,209.1,219.1z"/>
	<path class="st6" d="M197.4,186.3c-1,2.6-1.8,5.2-2.4,7.7c6.7,0.2,21.8,0.8,39.3,1.6c16.3,0.8,30.5,1.5,37.8,1.9
		c-0.6-2-1.6-4.9-2.8-7.9c-7.8-0.3-20.4-0.8-34.6-1.5C218.6,187.4,204.8,186.8,197.4,186.3z"/>
	<path class="st6" d="M207.7,227.1c-0.3,1.6-0.6,3.1-0.8,4.7c-0.2,0.9-0.3,1.9-0.5,2.8c7.2,0.3,16.2,0.7,26,1.1s18.7,0.9,25.9,1.3
		l-0.1-7.6c-7.1-0.3-15.9-0.7-25.5-1.1C223.4,227.9,214.8,227.4,207.7,227.1z"/>
	<path class="st6" d="M230.2,173.1c-1.4-1-2.8-2.1-3.9-3.4c0,0-9.7-4.3-17.4-0.1c-1.2,0.7-2.3,1.5-3.2,2.4
		C212.2,172.3,220.7,172.6,230.2,173.1z"/>
	<path class="st6" d="M205.3,172.4c-1.6,1.7-3,3.6-4.2,5.7c7.9,0.3,20.1,0.8,33.8,1.5c11.8,0.5,22.4,1.1,30.1,1.5
		c-0.8-1.6-1.9-2.9-3.3-4.1c-1.1-0.8-2.4-1.5-3.7-2.1c-5.1-0.2-10.8-0.5-17-0.7c-3.4,2.2-7.1,1.2-9.9-0.5
		C221.1,173.2,212.1,172.8,205.3,172.4z"/>
	<path class="st5" d="M201.1,178.1c-0.1,0.1-0.1,0.2-0.2,0.4c7.9,0.4,20.2,1.1,34,1.7c11.9,0.6,22.6,1,30.4,1.3l-0.2-0.4
		c-7.8-0.4-18.4-0.9-30.1-1.5C221.2,179,209,178.4,201.1,178.1z"/>
	<path class="st5" d="M256.7,174.3c-4.5-0.2-9.5-0.5-14.9-0.7c-0.2,0.2-0.5,0.4-0.7,0.5c6.2,0.3,12,0.5,17,0.7
		C257.6,174.7,257.1,174.5,256.7,174.3z"/>
	<path class="st5" d="M205.7,172c-0.1,0.1-0.3,0.3-0.4,0.4c6.8,0.4,15.9,0.8,25.9,1.3c-0.3-0.2-0.7-0.4-1-0.6
		C220.7,172.6,212.2,172.3,205.7,172z"/>
	<path class="st5" d="M197.5,186c0,0.1-0.1,0.2-0.1,0.3c7.4,0.4,21.3,1.1,37.2,1.9c14.2,0.6,26.8,1.2,34.6,1.5
		c0-0.1-0.1-0.2-0.1-0.4c-7.8-0.4-20.3-1.1-34.4-1.7C218.8,186.9,204.9,186.3,197.5,186z"/>
	<path class="st5" d="M194.9,194l-0.1,0.2c6.6,0.4,21.7,1.2,39.3,2c16.4,0.8,30.6,1.4,37.9,1.6c0-0.1-0.1-0.2-0.1-0.3
		c-7.3-0.4-21.4-1.1-37.8-1.9C216.7,194.8,201.6,194.2,194.9,194z"/>
	<path class="st5" d="M193,202c0,0.1,0,0.1,0,0.2c5.6,0.4,21.8,1.2,40.8,2.1c14.2,0.7,26.9,1.2,34.7,1.5l0.2-0.3
		c-7.8-0.4-20.5-1.1-34.9-1.7C214.8,202.8,198.7,202.1,193,202z"/>
	<path class="st5" d="M210.6,210.6c0,0.1,0,0.3-0.1,0.5c6.6,0.3,14.5,0.7,22.9,1.1c9.1,0.4,17.6,0.8,24.6,1.1l0,0v-0.1v0.1l4.4,0.2
		l0.3-0.4c-7.7-0.4-18-0.9-29.3-1.4C225.1,211.3,217.3,210.9,210.6,210.6z"/>
	<path class="st5" d="M209.2,218.6c0,0.2-0.1,0.3-0.1,0.5c6.8,0.4,15.1,0.8,23.9,1.2c9.4,0.4,18,0.8,25,1.1l0,0v-0.5l0,0
		c-7-0.4-15.7-0.8-25-1.2C224.3,219.3,216,218.9,209.2,218.6z"/>
	<path class="st5" d="M207.8,226.6c0,0.1,0,0.3-0.1,0.5c7,0.4,15.7,0.8,25,1.2c9.5,0.4,18.4,0.8,25.5,1.1l0,0v-0.5l0,0
		c-7.1-0.4-15.9-0.8-25.4-1.2C223.4,227.3,214.8,226.9,207.8,226.6z"/>
	<path class="st5" d="M206.4,234.6l-0.1,0.5c7.2,0.4,16.3,0.8,26.1,1.3s18.7,0.8,25.9,1.1l0,0V237l0,0c-7.2-0.4-16.2-0.8-25.9-1.3
		S213.6,234.9,206.4,234.6z"/>
	<path class="st5" d="M204.7,242.5c0,0.1-0.1,0.3-0.1,0.4c7.4,0.4,17,0.9,27.4,1.3c9.9,0.5,19.1,0.9,26.4,1.2l0,0V245l0,0
		c-7.3-0.4-16.4-0.8-26.4-1.3C221.6,243.3,212.1,242.8,204.7,242.5z"/>
	<path class="st5" d="M202.9,250.5c0,0.1-0.1,0.3-0.1,0.4c7.6,0.4,17.7,0.9,28.8,1.4c10.2,0.5,19.5,0.9,26.8,1.2l0,0v-0.4l0,0
		c-7.4-0.4-16.7-0.8-26.8-1.3C220.6,251.2,210.5,250.8,202.9,250.5z"/>
	<path class="st5" d="M215.7,258.1l3.9,0.7h0.6l10.9,0.5c10.4,0.5,19.9,0.9,27.4,1.2h0.1v-0.5l0,0c-7.4-0.4-17-0.9-27.3-1.3
		C225.7,258.6,220.5,258.4,215.7,258.1z"/>
	<path class="st5" d="M258.3,220.7c-0.2,0-0.9-5.8-1.5-13s-1.1-13-1-13s0.9,5.8,1.5,13S258.5,220.6,258.3,220.7z"/>
	<path class="st5" d="M257.7,191.8c0.1,0.1-0.3,0.9-1,1.9s-1.3,1.7-1.4,1.6s0.3-1,1-1.9S257.5,191.7,257.7,191.8z"/>
	<path class="st5" d="M248.6,223c0.1,0.1-6.9,4-15.6,8.6s-15.8,8.2-15.9,8.1s6.9-4,15.6-8.6S248.5,222.9,248.6,223z"/>
	<path class="st5" d="M250.2,229.9c-1.1,0.3-2.2,0.6-3.3,0.7l-8,1.5l-8,1.6c-1.1,0.3-2.2,0.5-3.4,0.6c1.1-0.4,2.1-0.8,3.3-1
		c2-0.5,4.9-1.2,8-1.8s6-1.1,8.1-1.4C248,230,249.1,229.9,250.2,229.9z"/>
	<path class="st5" d="M211.9,199.3c0.1,0.9,0.1,1.7,0,2.6c-0.1,1.6-0.2,3.8-0.5,6.2s-0.7,4.6-1.1,6.1c-0.1,0.9-0.4,1.7-0.7,2.5
		c0-0.9,0.1-1.7,0.3-2.6c0.2-1.6,0.6-3.7,0.9-6.1s0.6-4.6,0.7-6.1C211.5,201,211.7,200.1,211.9,199.3z"/>
	<path class="st5" d="M243.7,171.4c-0.1,0.3-0.3,0.5-0.4,0.7c-0.4,0.6-0.9,1.1-1.5,1.7c-0.8,0.8-1.8,1.4-2.9,1.7
		c-1.3,0.4-2.8,0.4-4.1,0c-2.4-0.7-4.6-1.9-6.5-3.5c-0.6-0.5-1.1-1-1.6-1.6c-0.3-0.4-0.5-0.6-0.5-0.7s0.8,0.8,2.3,1.9
		c1.9,1.5,4,2.6,6.4,3.2c1.3,0.4,2.6,0.4,3.8,0.1c1-0.3,2-0.8,2.7-1.5C242.9,172.3,243.6,171.4,243.7,171.4z"/>
</g>
</svg>
